
<svg width="450px" height="95px" viewBox="0 0 450 95" version="1.1" xmlns="http://www.w3.org/2000/svg" xmlns:xlink="http://www.w3.org/1999/xlink">
    <!-- Generator: Sketch 48.2 (47327) - http://www.bohemiancoding.com/sketch -->
    <desc>Created with Sketch.</desc>
    <defs>
        <polygon id="path-1" points="0.0456081081 63.47368 0.0456081081 0.16568 51.3798142 0.16568 51.3798142 63.47368"></polygon>
        <polygon id="path-3" points="429.634459 44.98098 429.634459 89.6344 0.212077703 89.6344 0.212077703 26.876245 0.212077703 0.32756 429.634459 0.32756"></polygon>
    </defs>
    <g id="Symbols" stroke="none" stroke-width="1" fill="none" fill-rule="evenodd">
        <g id="Header" transform="translate(-101.000000, 0.000000)">
            <g id="TS_Black_NEWTagRGB">
                <g transform="translate(101.000000, 0.000000)">
                    <g id="Group-3" transform="translate(0.000000, 3.040000)">
                        <mask id="mask-2" fill="white">
                            <use xlink:href="#path-1"></use>
                        </mask>
                        <g id="Clip-2"></g>
                        <polyline id="Fill-1" fill="#000000" mask="url(#mask-2)" points="31.2985642 10.47584 51.3798142 10.47584 51.3798142 0.16568 0 0.16568 0 10.47584 20.0820101 10.47584 20.0820101 63.47368 31.2985642 63.47368 31.2985642 10.47584"></polyline>
                    </g>
                    <path d="M62.9483108,39.56256 C62.9483108,32.14648 67.3814189,27.71492 73.7133446,27.71492 C80.2254223,27.71492 83.9348818,31.9656 83.9348818,39.38168 L83.9348818,66.51368 L94.8793074,66.51368 L94.8793074,36.12584 C94.8793074,25.00172 88.6378378,17.76652 77.8735642,17.76652 C70.4561655,17.76652 66.0238176,21.65544 62.9483108,26.17744 L62.9483108,0.49248 L52.003125,0.49248 L52.003125,66.51368 L62.9483108,66.51368 L62.9483108,39.56256" id="Fill-4" fill="#000000"></path>
                    <path d="M131.478294,39.29124 L106.964696,39.29124 C107.958953,31.87516 112.663429,26.72008 119.357179,26.72008 C126.592905,26.72008 130.754645,32.23692 131.478294,39.29124 M142.332264,43.54192 C142.332264,29.7046 134.644257,17.76652 119.447635,17.76652 C105.788767,17.76652 96.1092061,28.98108 96.1092061,42.72796 C96.1092061,57.56012 106.783024,67.5982 120.623564,67.5982 C129.397044,67.5982 135.638514,64.0718 140.162078,58.6454 L133.738936,52.94844 C129.93978,56.65572 126.140625,58.6454 120.804476,58.6454 C113.748902,58.6454 108.321537,54.30504 107.055152,46.52644 L142.152111,46.52644 C142.242568,45.44116 142.332264,44.53676 142.332264,43.54192" id="Fill-5" fill="#000000"></path>
                    <path d="M156.26022,19.7562 C156.26022,15.50552 160.059375,12.15924 166.572973,12.15924 C172.361402,12.15924 178.060135,14.42024 183.758868,18.67092 L189.72973,10.26 C183.306588,5.10492 175.980405,2.30128 166.753125,2.30128 C154.17973,2.30128 145.134882,9.71736 145.134882,20.75104 C145.134882,32.50824 152.733193,36.4876 166.210389,39.74344 C177.970439,42.45664 180.503209,44.89852 180.503209,49.51096 C180.503209,54.39472 176.160557,57.56012 169.285895,57.56012 C161.416976,57.56012 155.356419,54.5756 149.295101,49.33008 L142.602111,57.2888 C150.200422,64.0718 159.335726,67.41732 169.015287,67.41732 C182.312331,67.41732 191.629307,60.36376 191.629307,48.42568 C191.629307,37.8442 184.664189,33.05088 171.275929,29.79504 C159.155574,26.90096 156.26022,24.7304 156.26022,19.7562" id="Fill-6" fill="#000000"></path>
                    <path d="M235.870693,58.6454 L229.267399,52.13372 C225.830068,55.66088 222.031672,58.10276 216.875676,58.10276 C208.4625,58.10276 202.583615,51.22932 202.583615,42.63752 C202.583615,34.2266 208.372804,27.35316 216.332939,27.35316 C221.85,27.35316 225.377787,29.79504 228.724662,33.3222 L235.508868,25.99656 C231.07652,21.1128 225.468243,17.76652 216.423395,17.76652 C202.130574,17.76652 191.637669,29.16196 191.637669,42.8184 C191.637669,56.47484 202.130574,67.5982 216.332939,67.5982 C225.649155,67.5982 231.166976,63.89092 235.870693,58.6454" id="Fill-7" fill="#000000"></path>
                    <polygon id="Fill-8" fill="#000000" points="235.888176 11.43572 247.647466 11.43572 247.647466 1.03512 235.888176 1.03512"></polygon>
                    <polygon id="Fill-9" fill="#000000" points="236.341216 66.51292 247.285642 66.51292 247.285642 18.76136 236.341216 18.76136"></polygon>
                    <path d="M284.381757,39.29124 L259.868159,39.29124 C260.863936,31.87516 265.566892,26.72008 272.260642,26.72008 C279.497128,26.72008 283.658108,32.23692 284.381757,39.29124 M295.236486,43.54192 C295.236486,29.7046 287.54772,17.76652 272.351098,17.76652 C258.69223,17.76652 249.013429,28.98108 249.013429,42.72796 C249.013429,57.56012 259.687247,67.5982 273.527027,67.5982 C282.301267,67.5982 288.543497,64.0718 293.065541,58.6454 L286.643919,52.94844 C282.844764,56.65572 279.045608,58.6454 273.707939,58.6454 C266.652365,58.6454 261.225,54.30504 259.958615,46.52644 L295.055574,46.52644 C295.14603,45.44116 295.236486,44.53676 295.236486,43.54192" id="Fill-10" fill="#000000"></path>
                    <path d="M308.234037,39.56256 C308.234037,32.14648 312.666385,27.71492 318.998311,27.71492 C325.511909,27.71492 329.219848,31.9656 329.219848,39.38168 L329.219848,66.51368 L340.165034,66.51368 L340.165034,36.12584 C340.165034,25.00172 333.923564,17.76652 323.159291,17.76652 C315.741892,17.76652 311.309544,21.65544 308.234037,26.17744 L308.234037,18.76136 L297.289611,18.76136 L297.289611,66.51368 L308.234037,66.51368 L308.234037,39.56256" id="Fill-11" fill="#000000"></path>
                    <path d="M356.817314,28.16712 L369.662838,28.16712 L369.662838,18.76136 L356.817314,18.76136 L356.817314,5.64756 L345.872889,5.64756 L345.872889,18.76136 L339.811571,18.76136 L339.811571,28.16712 L345.872889,28.16712 L345.872889,53.30944 C345.872889,63.79972 351.571622,67.32688 359.622213,67.32688 C363.691976,67.32688 366.767483,66.42324 369.481166,64.885 L369.481166,55.93144 C367.31022,57.01748 365.139274,57.56012 362.696959,57.56012 C358.98902,57.56012 356.817314,55.84176 356.817314,51.59108 L356.817314,28.16712" id="Fill-12" fill="#000000"></path>
                    <polygon id="Fill-13" fill="#000000" points="371.036402 11.43572 382.794932 11.43572 382.794932 1.03512 371.036402 1.03512"></polygon>
                    <polygon id="Fill-14" fill="#000000" points="371.488682 66.51292 382.433108 66.51292 382.433108 18.76136 371.488682 18.76136"></polygon>
                    <path d="M421.428801,52.40504 L421.428801,52.2234 C421.428801,43.63236 413.559882,40.46696 406.594003,38.2964 C400.986486,36.4876 395.82973,35.04056 395.82973,31.60384 L395.82973,31.42296 C395.82973,28.61932 398.272044,26.62964 402.52348,26.62964 C406.503547,26.62964 410.280659,27.77116 414.893919,30.5748 L419.235811,22.79696 C414.17027,19.45068 408.764949,17.9474 402.794848,17.9474 C393.296959,17.9474 385.789105,23.46424 385.789105,32.50824 L385.789105,32.68912 C385.789105,41.82356 393.658784,44.71764 400.714358,46.70732 C406.322635,48.42568 411.388176,49.69184 411.388176,53.39912 L411.388176,53.58076 C411.388176,56.74692 408.674493,58.73584 403.970777,58.73584 C399.086909,58.73584 393.478632,56.74692 388.321875,52.85724 L383.438007,60.27332 C389.407348,64.97544 396.915203,67.41732 403.699409,67.41732 C413.650338,67.41732 421.428801,62.44312 421.428801,52.40504" id="Fill-15" fill="#000000"></path>
                    <g id="Group-19" transform="translate(19.763514, 5.320000)">
                        <mask id="mask-4" fill="white">
                            <use xlink:href="#path-3"></use>
                        </mask>
                        <g id="Clip-17"></g>
                        <path d="M416.790456,22.84712 L429.634459,22.84712 L429.634459,13.44136 L416.790456,13.44136 L416.790456,0.32756 L405.84451,0.32756 L405.84451,13.44136 L399.783953,13.44136 L399.783953,22.84712 L405.84451,22.84712 L405.84451,47.98944 C405.84451,58.47972 411.543243,62.00688 419.593834,62.00688 C423.664358,62.00688 426.739865,61.10324 429.454307,59.565 L429.454307,50.61144 C427.282601,51.69748 425.111655,52.24012 422.669341,52.24012 C418.960642,52.24012 416.790456,50.52176 416.790456,46.27108 L416.790456,22.84712" id="Fill-16" fill="#000000" mask="url(#mask-4)"></path>
                        <path d="M0.212077703,86.5526 L10.5005068,86.5526 L10.5005068,83.90932 L3.16368243,83.90932 L3.16368243,81.06844 L9.53513514,81.06844 L9.53513514,78.42744 L3.16368243,78.42744 L3.16368243,75.6846 L10.4039696,75.6846 L10.4039696,73.04284 L0.212077703,73.04284 L0.212077703,86.5526 Z M12.5103041,86.5526 L15.8891047,86.5526 L18.939527,81.92116 L21.9709459,86.5526 L25.4455236,86.5526 L20.7342061,79.64344 L25.2524493,73.04284 L21.8744088,73.04284 L18.9972973,77.42196 L16.1787162,73.04284 L12.7041385,73.04284 L17.2208615,79.68144 L12.5103041,86.5526 Z M28.0543074,86.5526 L31.0241554,86.5526 L31.0241554,82.498 L33.2847973,82.498 C36.3177365,82.498 38.7471284,80.87844 38.7471284,77.75104 L38.7471284,77.71228 C38.7471284,74.9512 36.7996622,73.04284 33.5751689,73.04284 L28.0543074,73.04284 L28.0543074,86.5526 Z M31.0241554,79.857 L31.0241554,75.7226 L33.3243243,75.7226 C34.8119088,75.7226 35.7385135,76.437 35.7385135,77.7708 L35.7385135,77.8088 C35.7385135,78.96704 34.8696791,79.857 33.3828547,79.857 L31.0241554,79.857 Z M41.3384291,86.5526 L51.0476351,86.5526 L51.0476351,83.85232 L44.3090372,83.85232 L44.3090372,73.04284 L41.3384291,73.04284 L41.3384291,86.5526 Z M59.4668919,86.78364 C63.6392736,86.78364 66.667652,83.63952 66.667652,79.79772 L66.667652,79.7582 C66.667652,75.91564 63.6772804,72.80952 59.5056588,72.80952 C55.3347973,72.80952 52.3064189,75.9544 52.3064189,79.79772 L52.3064189,79.83496 C52.3064189,83.67828 55.2952703,86.78364 59.4668919,86.78364 Z M59.5056588,84.04536 C57.110473,84.04536 55.4108108,82.11344 55.4108108,79.79772 L55.4108108,79.7582 C55.4108108,77.44172 57.0717061,75.5478 59.4668919,75.5478 C61.8620777,75.5478 63.5609797,77.47896 63.5609797,79.79772 L63.5609797,79.83496 C63.5609797,82.1522 61.9000845,84.04536 59.5056588,84.04536 Z M69.7005912,86.5526 L72.6727196,86.5526 L72.6727196,82.2282 L75.0108953,82.2282 L77.9070101,86.5526 L81.3815878,86.5526 L78.0818412,81.72736 C79.7982264,81.09048 80.9756757,79.7202 80.9756757,77.539 L80.9756757,77.50024 C80.9756757,76.22344 80.5690034,75.16248 79.8172297,74.41084 C78.9293919,73.52544 77.5983953,73.04284 75.8789696,73.04284 L69.7005912,73.04284 L69.7005912,86.5526 Z M72.6727196,79.60544 L72.6727196,75.7226 L75.628125,75.7226 C77.0754223,75.7226 77.9647804,76.37848 77.9647804,77.65376 L77.9647804,77.69252 C77.9647804,78.83252 77.1339527,79.60544 75.6858953,79.60544 L72.6727196,79.60544 Z M84.1819257,86.5526 L87.1532939,86.5526 L87.1532939,73.04284 L84.1819257,73.04284 L84.1819257,86.5526 Z M90.9220439,86.5526 L93.8538851,86.5526 L93.8538851,77.9646 L100.400929,86.5526 L102.927618,86.5526 L102.927618,73.04284 L99.995777,73.04284 L99.995777,81.36028 L93.6600507,73.04284 L90.9220439,73.04284 L90.9220439,86.5526 Z M113.066301,86.78364 C115.5375,86.78364 117.44848,85.8192 118.838007,84.64272 L118.838007,78.77628 L112.970524,78.77628 L112.970524,81.33976 L115.962416,81.33976 L115.962416,83.2732 C115.209122,83.81432 114.24375,84.08412 113.162838,84.08412 C110.768412,84.08412 109.06875,82.26924 109.06875,79.79772 L109.06875,79.7582 C109.06875,77.46072 110.785895,75.5478 112.95076,75.5478 C114.514358,75.5478 115.441723,76.05092 116.483868,76.92036 L118.356081,74.6624 C116.948311,73.4654 115.47973,72.80952 113.047297,72.80952 C108.952449,72.80952 105.961318,75.9544 105.961318,79.79772 L105.961318,79.83496 C105.961318,83.83332 108.855152,86.78364 113.066301,86.78364 Z M128.261402,86.5526 L137.970608,86.5526 L137.970608,83.85232 L131.23277,83.85232 L131.23277,73.04284 L128.261402,73.04284 L128.261402,86.5526 Z M140.734459,86.5526 L143.705068,86.5526 L143.705068,73.04284 L140.734459,73.04284 L140.734459,86.5526 Z M147.473818,86.5526 L150.443666,86.5526 L150.443666,81.32076 L156.894172,81.32076 L156.894172,78.62124 L150.443666,78.62124 L150.443666,75.7416 L157.760726,75.7416 L157.760726,73.04284 L147.473818,73.04284 L147.473818,86.5526 Z M160.525338,86.5526 L170.814527,86.5526 L170.814527,83.90932 L163.476943,83.90932 L163.476943,81.06844 L169.849155,81.06844 L169.849155,78.42744 L163.476943,78.42744 L163.476943,75.6846 L170.71723,75.6846 L170.71723,73.04284 L160.525338,73.04284 L160.525338,86.5526 Z M172.978632,89.68 C175.27576,89.64048 176.548986,88.62056 176.548986,86.07076 L176.548986,83.46548 L173.424071,83.46548 L173.424071,86.5526 L174.619003,86.5526 C174.716301,87.65384 174.060304,88.331 172.727787,88.46628 L172.978632,89.68 Z M186.069679,86.5526 L189.041047,86.5526 L189.041047,73.04284 L186.069679,73.04284 L186.069679,86.5526 Z M192.808277,86.5526 L195.741639,86.5526 L195.741639,77.9646 L202.287922,86.5526 L204.815372,86.5526 L204.815372,73.04284 L201.88353,73.04284 L201.88353,81.36028 L195.547804,73.04284 L192.808277,73.04284 L192.808277,86.5526 Z M213.254392,86.74488 C216.17027,86.74488 218.214274,85.24084 218.214274,82.55804 L218.214274,82.52004 C218.214274,80.1648 216.671959,79.17832 213.930912,78.46544 C211.591976,77.86732 211.015034,77.57548 211.015034,76.68856 L211.015034,76.64904 C211.015034,75.99316 211.61326,75.4718 212.751943,75.4718 C213.892145,75.4718 215.070355,75.97264 216.266807,76.80332 L217.809882,74.56588 C216.439358,73.4654 214.76022,72.84828 212.789949,72.84828 C210.029899,72.84828 208.060389,74.4686 208.060389,76.92036 L208.060389,76.95836 C208.060389,79.64344 209.816301,80.3966 212.538345,81.09048 C214.799747,81.67036 215.263429,82.05568 215.263429,82.81036 L215.263429,82.84836 C215.263429,83.63952 214.529139,84.12212 213.312162,84.12212 C211.765287,84.12212 210.492061,83.48524 209.276605,82.48204 L207.519932,84.58572 C209.141301,86.03276 211.206588,86.74488 213.254392,86.74488 Z M221.190203,86.5526 L224.162331,86.5526 L224.162331,82.498 L226.420693,82.498 C229.453632,82.498 231.886824,80.87844 231.886824,77.75104 L231.886824,77.71228 C231.886824,74.9512 229.936318,73.04284 226.711824,73.04284 L221.190203,73.04284 L221.190203,86.5526 Z M224.162331,79.857 L224.162331,75.7226 L226.46022,75.7226 C227.947804,75.7226 228.874409,76.437 228.874409,77.7708 L228.874409,77.8088 C228.874409,78.96704 228.005574,79.857 226.51875,79.857 L224.162331,79.857 Z M234.608868,86.5526 L237.580997,86.5526 L237.580997,73.04284 L234.608868,73.04284 L234.608868,86.5526 Z M241.347466,86.5526 L244.320355,86.5526 L244.320355,82.2282 L246.65625,82.2282 L249.553125,86.5526 L253.028463,86.5526 L249.727196,81.72736 C251.444341,81.09048 252.621791,79.7202 252.621791,77.539 L252.621791,77.50024 C252.621791,76.22344 252.217399,75.16248 251.462584,74.41084 C250.577027,73.52544 249.24527,73.04284 247.526605,73.04284 L241.347466,73.04284 L241.347466,86.5526 Z M244.320355,79.60544 L244.320355,75.7226 L247.275,75.7226 C248.723057,75.7226 249.611655,76.37848 249.611655,77.65376 L249.611655,77.69252 C249.611655,78.83252 248.780828,79.60544 247.33277,79.60544 L244.320355,79.60544 Z M255.829561,86.5526 L258.799409,86.5526 L258.799409,73.04284 L255.829561,73.04284 L255.829561,86.5526 Z M262.568159,86.5526 L265.49848,86.5526 L265.49848,77.9646 L272.049324,86.5526 L274.575253,86.5526 L274.575253,73.04284 L271.641892,73.04284 L271.641892,81.36028 L265.307686,73.04284 L262.568159,73.04284 L262.568159,86.5526 Z M284.711655,86.78364 C287.185895,86.78364 289.094595,85.8192 290.484122,84.64272 L290.484122,78.77628 L284.616639,78.77628 L284.616639,81.33976 L287.610811,81.33976 L287.610811,83.2732 C286.856757,83.81432 285.891385,84.08412 284.809713,84.08412 C282.413007,84.08412 280.714865,82.26924 280.714865,79.79772 L280.714865,79.7582 C280.714865,77.46072 282.434291,75.5478 284.596115,75.5478 C286.162753,75.5478 287.088598,76.05092 288.130743,76.92036 L290.002956,74.6624 C288.594426,73.4654 287.127365,72.80952 284.692652,72.80952 C280.598564,72.80952 277.608193,75.9544 277.608193,79.79772 L277.608193,79.83496 C277.608193,83.83332 280.502027,86.78364 284.711655,86.78364 Z M300.045861,86.5526 L303.015709,86.5526 L303.015709,73.04284 L300.045861,73.04284 L300.045861,86.5526 Z M306.782939,86.5526 L309.71402,86.5526 L309.71402,77.9646 L316.263345,86.5526 L318.790034,86.5526 L318.790034,73.04284 L315.857432,73.04284 L315.857432,81.36028 L309.521706,73.04284 L306.782939,73.04284 L306.782939,86.5526 Z M322.42348,86.5526 L325.353801,86.5526 L325.353801,77.9646 L331.903885,86.5526 L334.429814,86.5526 L334.429814,73.04284 L331.497973,73.04284 L331.497973,81.36028 L325.160726,73.04284 L322.42348,73.04284 L322.42348,86.5526 Z M344.624747,86.78364 C348.798649,86.78364 351.826267,83.63952 351.826267,79.79772 L351.826267,79.7582 C351.826267,75.91564 348.835895,72.80952 344.665794,72.80952 C340.491892,72.80952 337.462753,75.9544 337.462753,79.79772 L337.462753,79.83496 C337.462753,83.67828 340.453885,86.78364 344.624747,86.78364 Z M344.665794,84.04536 C342.268328,84.04536 340.569426,82.11344 340.569426,79.79772 L340.569426,79.7582 C340.569426,77.44172 342.229561,75.5478 344.624747,75.5478 C347.017652,75.5478 348.721115,77.47896 348.721115,79.79772 L348.721115,79.83496 C348.721115,82.1522 347.059459,84.04536 344.665794,84.04536 Z M358.296537,86.64836 L360.921284,86.64836 L366.384375,73.04284 L363.178885,73.04284 L359.646537,82.55728 L356.114189,73.04284 L352.833446,73.04284 L358.296537,86.64836 Z M365.768666,86.5526 L368.800845,86.5526 L370.035304,83.52096 L375.74924,83.52096 L376.982939,86.5526 L380.093412,86.5526 L374.301182,72.94556 L371.561655,72.94556 L365.768666,86.5526 Z M371.095693,80.8982 L372.894172,76.5168 L374.688851,80.8982 L371.095693,80.8982 Z M383.978463,86.5526 L386.947551,86.5526 L386.947551,75.78036 L391.060642,75.78036 L391.060642,73.04284 L379.864611,73.04284 L379.864611,75.78036 L383.978463,75.78036 L383.978463,86.5526 Z M393.86326,86.5526 L396.832348,86.5526 L396.832348,73.04284 L393.86326,73.04284 L393.86326,86.5526 Z M407.164865,86.78364 C411.335726,86.78364 414.366385,83.63952 414.366385,79.79772 L414.366385,79.7582 C414.366385,75.91564 411.373733,72.80952 407.202872,72.80952 C403.03201,72.80952 400.002872,75.9544 400.002872,79.79772 L400.002872,79.83496 C400.002872,83.67828 402.991723,86.78364 407.164865,86.78364 Z M407.202872,84.04536 C404.806926,84.04536 403.108784,82.11344 403.108784,79.79772 L403.108784,79.7582 C403.108784,77.44172 404.768919,75.5478 407.164865,75.5478 C409.55853,75.5478 411.258193,77.47896 411.258193,79.79772 L411.258193,79.83496 C411.258193,82.1522 409.597297,84.04536 407.202872,84.04536 Z M417.397044,86.5526 L420.331166,86.5526 L420.331166,77.9646 L426.878209,86.5526 L429.404899,86.5526 L429.404899,73.04284 L426.473818,73.04284 L426.473818,81.36028 L420.138091,73.04284 L417.397044,73.04284 L417.397044,86.5526 Z" id="Fill-18" fill="#000000" mask="url(#mask-4)"></path>
                    </g>
                </g>
            </g>
        </g>
    </g>
</svg>